<?xml version="1.0" encoding="utf-8"?>
<!-- Generator: Adobe Illustrator 24.3.0, SVG Export Plug-In . SVG Version: 6.00 Build 0)  -->
<svg version="1.1" id="Layer_1" xmlns="http://www.w3.org/2000/svg" xmlns:xlink="http://www.w3.org/1999/xlink" x="0px" y="0px"
	 viewBox="0 0 100 100" style="enable-background:new 0 0 100 100;" xml:space="preserve">
<style type="text/css">
	.st0{fill:#FFFFFF;}
</style>
<g>
	<path class="st0" d="M78.42,0H21.59c-5.33,0-9.67,4.34-9.67,9.67c0,71.93-0.08,67.59,0.17,68.33c0.16,0.49,0.44,0.92,0.77,1.25
		c0.2,0.2,19.79,19.81,20.07,20.03c1.27,0.98-0.68,0.67,45.49,0.67c5.33,0,9.67-4.34,9.67-9.67V9.67C88.09,4.34,83.75,0,78.42,0z
		 M31.67,88.94l-8.74-8.74h8.74V88.94z M81.64,90.28c0,1.78-1.45,3.22-3.22,3.22h-40.3V76.98c0-1.78-1.44-3.22-3.22-3.22H18.37V9.67
		c0-1.78,1.45-3.22,3.22-3.22h56.83c1.78,0,3.22,1.45,3.22,3.22V90.28z M71.37,65.09c0,1.78-1.44,3.22-3.22,3.22H31.67
		c-1.78,0-3.22-1.44-3.22-3.22c0-1.78,1.44-3.22,3.22-3.22h36.47C69.92,61.87,71.37,63.31,71.37,65.09z M71.37,81.62
		c0,1.78-1.44,3.22-3.22,3.22H47.39c-1.78,0-3.22-1.44-3.22-3.22s1.44-3.22,3.22-3.22h20.76C69.92,78.39,71.37,79.83,71.37,81.62z
		 M49.87,33.87c5.98,0,10.85-4.87,10.85-10.85s-4.87-10.85-10.85-10.85s-10.85,4.87-10.85,10.85S43.89,33.87,49.87,33.87
		L49.87,33.87z M49.87,18.61c2.43,0,4.4,1.98,4.4,4.4s-1.98,4.4-4.4,4.4c-2.43,0-4.4-1.98-4.4-4.4S47.45,18.61,49.87,18.61
		L49.87,18.61z M33.55,49.66v-4.42c0-2.79,1.65-5.32,4.19-6.46l5.11-2.28c0.86-0.38,0.26-0.28,12.66-0.28
		c0.91,0,0.88,0.08,6.43,2.56c2.55,1.14,4.19,3.67,4.19,6.46v4.42c0,1.78-1.44,3.22-3.22,3.22s-3.22-1.44-3.22-3.22v-4.42
		c0-0.25-0.15-0.47-0.37-0.57l-4.49-2h-9.97l-4.49,2C40.14,44.77,40,45,40,45.24v4.42c0,1.78-1.44,3.22-3.22,3.22
		S33.55,51.45,33.55,49.66L33.55,49.66z"/>
</g>
</svg>
