<?xml version="1.0" encoding="utf-8"?>
<!-- Generator: Adobe Illustrator 22.0.0, SVG Export Plug-In . SVG Version: 6.00 Build 0)  -->
<svg version="1.1" id="Capa_1" xmlns="http://www.w3.org/2000/svg" xmlns:xlink="http://www.w3.org/1999/xlink" x="0px" y="0px"
	 viewBox="0 0 512 512" style="enable-background:new 0 0 512 512;" xml:space="preserve">
<style type="text/css">
	.st0{fill:#273589;}
</style>
<g>
	<g>
		<path class="st0" d="M7.1,397.3c-0.4,0.7-1.3,1.1-2.7,1.1H2.7C0.9,397.3,0,396,0,394.6V177.7c0-1.8,0.7-3.1,2.2-3.8
			c1.4-0.4,2.9-0.4,4.3,0l144.6,82.6c1.4,0.7,2.2,1.8,2.2,3.3c0,1.8-0.5,2.9-1.6,3.3L7.1,397.3z M493,457.1c1.1,1.5,1.5,2.9,1.1,4.3
			c-1.1,1.8-2.5,2.7-4.3,2.7H16.8c-2.5,0-5.3-0.9-8.2-2.7c-1.4-0.7-2.2-1.8-2.2-3.3c0-1.5,0.5-2.5,1.6-3.3l184.3-171.2
			c1.4-1.4,3.1-1.6,4.9-0.5l48.9,27.7c6.9,4,13.9,4,21.2,0l55.4-32.6c2.2-1.5,3.8-1.3,4.9,0.5L493,457.1z M509.8,170.7
			c1.4,0.7,2.2,2,2.2,3.8v229.4c0,1.8-0.9,3.1-2.7,3.8c-0.4,0.4-0.9,0.5-1.6,0.5c-1.1,0-2.2-0.5-3.3-1.6L366.9,258.2
			c-1.1-1.1-1.4-2.2-1.1-3.3c0-1.4,0.5-2.5,1.6-3.3l138.1-81C506.6,169.6,508,169.6,509.8,170.7z M494.6,47.8
			c5.1,0,9.2,1.6,12.5,4.9s4.9,7.2,4.9,12v52.2c0,2.5-1.3,3.8-3.8,3.8c-2.2,0.4-4.2,1.3-6,2.7L258.7,266.3c-0.4,0.4-1.1,0.5-2.2,0.5
			c-1.1,0-1.8-0.2-2.2-0.5L3.3,123.4C1.1,121.9,0,120.5,0,119V64.7c0-4.7,1.6-8.7,4.9-12s7.2-4.9,12-4.9L494.6,47.8L494.6,47.8z"/>
	</g>
</g>
</svg>
