<?xml version="1.0" encoding="utf-8"?>
<!-- Generator: Adobe Illustrator 22.0.0, SVG Export Plug-In . SVG Version: 6.00 Build 0)  -->
<svg version="1.1" id="Layer_1" xmlns="http://www.w3.org/2000/svg" xmlns:xlink="http://www.w3.org/1999/xlink" x="0px" y="0px"
	 viewBox="0 0 500 271" style="enable-background:new 0 0 500 271;" xml:space="preserve">
<style type="text/css">
	.st0{fill:#FFFFFF;}
	.st1{fill:#FFFDF8;}
</style>
<rect class="st0" width="500" height="271"/>
<g>
	<g>
		<path class="st1" d="M216.7,189.9c24.5,30.6,43.3,43.4,57.4,38.8l3.5-1l8.8-45.7l16.6,3.4l-12.9,64.4l31,6.3l12.9-64.4l10.3,2.1
			l-10.5,52.4l31,6.3l10.5-52.4l10.3,2.1l-8.2,40.5l31.1,6.2l8.2-40.5l17.5,3.5c4.5,6.7,9.8,14.8,16.5,22.7
			c22.5,27.7,40,39.5,53.2,35.5l6.2-2.1l-20.9-64.5l43.9-51.9l-4.9-4.3c-12.7-10.8-42.1-2.3-86.8,26.8l-16.6-3.4l8.2-40.5l-31-6.3
			l-8.2,40.5l-10.3-2.1l10.5-52.4l-31-6.3L352.4,156l-10.3-2.1l12.9-64.3l-31-6.3l-12.6,64.8l-17.5-3.5l8.8-45.7l-2.9-2.2
			c-9.6-8.1-26-6.1-51.5,5.4c-18.6,8.2-37.5,20.1-50.4,28.7c-6.2,4.1-10.5,7-10.5,7l-4.8,3.1l3.1,4.8
			C186.5,146.6,199.6,168.3,216.7,189.9z M243,129c1.6-7.9,9.7-13.4,17.6-11.7c7.9,1.6,13.4,9.7,11.7,17.6
			c-1.6,7.9-9.7,13.4-17.6,11.7C246.8,145.1,241.4,137,243,129z"/>
	</g>
	<circle class="st1" cx="156.8" cy="105.7" r="8.7"/>
	<circle class="st1" cx="114.3" cy="71.5" r="23.9"/>
</g>
</svg>
