<?xml version="1.0" encoding="utf-8"?>
<!-- Generator: Adobe Illustrator 22.0.0, SVG Export Plug-In . SVG Version: 6.00 Build 0)  -->
<svg version="1.1" id="Layer_1" xmlns="http://www.w3.org/2000/svg" xmlns:xlink="http://www.w3.org/1999/xlink" x="0px" y="0px"
	 viewBox="0 0 512 512" style="enable-background:new 0 0 512 512;" xml:space="preserve">
<style type="text/css">
	.st0{fill:#273589;}
</style>
<g>
	<g>
		<path class="st0" d="M277.3,229.9v-0.7c-0.2,0.3-0.4,0.5-0.5,0.7H277.3z"/>
		<path class="st0" d="M0,0v512h512V0H0z M159.3,425.4h-76V196.8h76V425.4z M121.3,165.6h-0.5c-25.5,0-42-17.6-42-39.5
			c0-22.4,17-39.5,43-39.5c26,0,42,17.1,42.5,39.5C164.2,148.1,147.8,165.6,121.3,165.6z M433.2,425.4h-76V303.1
			c0-30.7-11-51.7-38.5-51.7c-21,0-33.5,14.1-39,27.8c-2,4.9-2.5,11.7-2.5,18.5v127.6h-76c0,0,1-207.1,0-228.5h76v32.4
			c10.1-15.5,28.1-37.7,68.5-37.7c50,0,87.5,32.7,87.5,102.8V425.4z"/>
	</g>
</g>
</svg>
