<?xml version="1.0" encoding="utf-8"?>
<!-- Generator: Adobe Illustrator 22.0.0, SVG Export Plug-In . SVG Version: 6.00 Build 0)  -->
<svg version="1.1" id="Layer_1" xmlns="http://www.w3.org/2000/svg" xmlns:xlink="http://www.w3.org/1999/xlink" x="0px" y="0px"
	 viewBox="0 0 224.2 48.6" style="enable-background:new 0 0 224.2 48.6;" xml:space="preserve">
<style type="text/css">
	.st0{fill:#FFFFFF;}
</style>
<g>
	<path class="st0" d="M12.5,28.3L4.9,14.6H4.8v13.8H0V0h4.8v12.3h0.1L12.1,0h5.4L9.2,13L18,28.3H12.5z"/>
	<path class="st0" d="M29.2,28.3V0h12.7v4.2h-8.1v7.5h7.5v3.9h-7.5V24h8.5v4.3H29.2z"/>
	<path class="st0" d="M54.6,28.3V0h4.8v28.3H54.6z"/>
	<path class="st0" d="M80.3,4.1v24.2h-4.7V4.1h-5.3V0h15.4v4.1H80.3z"/>
	<path class="st0" d="M108,28.3l-1.4-6h-7.4l-1.4,6h-4.8l7-28.3h6.1l6.9,28.3H108z M103,4.5h-0.2l-3.1,14h6.2L103,4.5z"/>
	<path class="st0" d="M166.4,28.3l-1.4-6h-7.4l-1.4,6h-4.8l7-28.3h6.1l6.9,28.3H166.4z M161.4,4.5h-0.2l-3.1,14h6.2L161.4,4.5z"/>
	<path class="st0" d="M198.7,20.4c0,1.5-0.2,2.7-0.7,3.7c-0.5,1-1.1,1.8-1.9,2.4c-0.8,0.6-1.6,1.1-2.6,1.3c-0.9,0.3-1.9,0.4-2.8,0.4
		h-8.4V0h7.5c0.8,0,1.7,0.1,2.6,0.3c0.9,0.2,1.8,0.6,2.6,1.1s1.4,1.2,1.9,2.2c0.5,0.9,0.8,2.1,0.8,3.6c0,1.8-0.4,3.1-1.1,4.2
		c-0.7,1-1.6,1.7-2.6,2.1v0.1c0.5,0.1,1.1,0.4,1.6,0.7c0.5,0.3,1,0.8,1.5,1.3c0.5,0.6,0.8,1.3,1.1,2.1
		C198.5,18.4,198.7,19.3,198.7,20.4z M193.4,7.9c0-0.7-0.1-1.3-0.3-1.8c-0.2-0.5-0.5-0.9-0.9-1.2c-0.4-0.3-0.8-0.5-1.3-0.7
		c-0.5-0.1-1-0.2-1.5-0.2h-2.6v7.9h2.7c0.5,0,0.9-0.1,1.4-0.2c0.5-0.1,0.9-0.4,1.2-0.7c0.4-0.3,0.6-0.7,0.9-1.2
		C193.3,9.2,193.4,8.6,193.4,7.9z M194.1,20c0-0.8-0.1-1.5-0.4-2.1c-0.3-0.6-0.6-1-1-1.4c-0.4-0.4-0.9-0.6-1.4-0.8
		c-0.5-0.2-1-0.2-1.5-0.2h-2.9v8.8h3c0.6,0,1.1-0.1,1.6-0.3s0.9-0.4,1.3-0.8s0.7-0.8,0.9-1.3C194,21.4,194.1,20.7,194.1,20z"/>
	<path class="st0" d="M211.1,28.3V0h12.7v4.2h-8.1v7.5h7.5v3.9h-7.5V24h8.5v4.3H211.1z"/>
</g>
<g>
	<path class="st0" d="M6.3,39c0,0.6-0.1,1.1-0.3,1.6s-0.4,0.8-0.7,1.1c-0.3,0.3-0.6,0.5-1,0.7s-0.8,0.2-1.2,0.2H1.3v5.7H0.1V35.6h3
		c0.4,0,0.8,0.1,1.1,0.2c0.4,0.1,0.7,0.3,1,0.6c0.3,0.3,0.6,0.6,0.8,1.1C6.2,37.8,6.3,38.4,6.3,39z M5.1,39c0-0.4-0.1-0.8-0.2-1.1
		c-0.1-0.3-0.3-0.6-0.4-0.7C4.3,37,4,36.9,3.8,36.8c-0.2-0.1-0.5-0.1-0.8-0.1H1.3v4.9H3c0.6,0,1-0.2,1.4-0.6
		C4.9,40.5,5.1,39.9,5.1,39z"/>
	<path class="st0" d="M13.7,43.9c0,0.7-0.1,1.3-0.2,1.9s-0.3,1.1-0.6,1.5c-0.3,0.4-0.6,0.7-1,1c-0.4,0.2-0.8,0.3-1.3,0.3
		s-0.9-0.1-1.3-0.3c-0.4-0.2-0.7-0.6-1-1s-0.5-0.9-0.6-1.5s-0.2-1.2-0.2-1.9s0.1-1.4,0.2-1.9c0.1-0.6,0.3-1.1,0.6-1.5
		c0.3-0.4,0.6-0.7,1-1c0.4-0.2,0.8-0.3,1.3-0.3c0.5,0,0.9,0.1,1.3,0.3c0.4,0.2,0.7,0.6,1,1c0.3,0.4,0.5,0.9,0.6,1.5
		C13.6,42.5,13.7,43.2,13.7,43.9z M12.4,43.8c0-0.5,0-1-0.1-1.5s-0.2-0.8-0.4-1.2s-0.4-0.6-0.6-0.8c-0.2-0.2-0.5-0.3-0.8-0.3
		c-0.3,0-0.6,0.1-0.8,0.3c-0.2,0.2-0.4,0.5-0.6,0.8s-0.3,0.7-0.3,1.2s-0.1,0.9-0.1,1.5c0,0.5,0,1,0.1,1.5c0.1,0.4,0.2,0.8,0.3,1.2
		c0.1,0.3,0.3,0.6,0.6,0.8c0.2,0.2,0.5,0.3,0.8,0.3c0.3,0,0.6-0.1,0.8-0.3c0.2-0.2,0.4-0.4,0.6-0.8c0.1-0.3,0.3-0.7,0.3-1.2
		C12.4,44.9,12.4,44.4,12.4,43.8z"/>
	<path class="st0" d="M19.7,40.9c-0.2-0.3-0.4-0.5-0.6-0.6c-0.2-0.2-0.5-0.2-0.9-0.2c-0.4,0-0.7,0.1-0.9,0.4
		c-0.2,0.3-0.4,0.7-0.4,1.1c0,0.5,0.1,0.8,0.4,1s0.6,0.4,1.1,0.6c0.2,0.1,0.5,0.2,0.7,0.4c0.2,0.1,0.5,0.3,0.6,0.5s0.3,0.4,0.5,0.7
		c0.1,0.3,0.2,0.6,0.2,1c0,0.9-0.2,1.6-0.7,2c-0.5,0.5-1.1,0.7-1.8,0.7c-0.5,0-1-0.1-1.4-0.4c-0.4-0.2-0.8-0.5-1-0.9l0.7-0.8
		c0.2,0.3,0.4,0.6,0.7,0.8c0.3,0.2,0.6,0.3,1,0.3c0.4,0,0.8-0.2,1-0.5c0.3-0.3,0.4-0.7,0.4-1.2c0-0.3,0-0.5-0.1-0.7
		c-0.1-0.2-0.2-0.4-0.4-0.5c-0.2-0.1-0.3-0.2-0.5-0.3c-0.2-0.1-0.4-0.2-0.6-0.3c-0.2-0.1-0.4-0.2-0.7-0.3c-0.2-0.1-0.4-0.3-0.6-0.5
		c-0.2-0.2-0.3-0.4-0.4-0.7s-0.2-0.6-0.2-1c0-0.4,0.1-0.7,0.2-1c0.1-0.3,0.3-0.6,0.5-0.8s0.5-0.4,0.8-0.5c0.3-0.1,0.6-0.2,1-0.2
		c0.5,0,0.9,0.1,1.3,0.3c0.4,0.2,0.7,0.5,0.9,0.8L19.7,40.9z"/>
	<path class="st0" d="M25.1,48.5c-0.2,0-0.4,0.1-0.6,0.1c-0.6,0-1.1-0.2-1.3-0.6s-0.4-1-0.4-1.7v-5.8h-1.2v-1h1.2v-2.5H24v2.5h1.6v1
		H24V46c0,0.5,0.1,0.9,0.2,1.2c0.2,0.2,0.4,0.4,0.7,0.4c0.1,0,0.2,0,0.3,0c0.1,0,0.2-0.1,0.3-0.1l0.1,1
		C25.5,48.4,25.3,48.4,25.1,48.5z"/>
	<path class="st0" d="M26.9,44.1v-1h2.7v1H26.9z"/>
	<path class="st0" d="M39.5,42c0,1-0.1,2-0.3,2.8c-0.2,0.8-0.5,1.5-0.9,2c-0.4,0.5-0.9,0.9-1.5,1.2s-1.2,0.4-1.9,0.4h-2.7V35.6h2.8
		c0.7,0,1.3,0.1,1.9,0.4s1.1,0.7,1.5,1.2s0.7,1.2,0.9,2C39.3,40,39.5,40.9,39.5,42z M38.2,42c0-0.9-0.1-1.7-0.3-2.4
		c-0.2-0.7-0.4-1.2-0.7-1.7c-0.3-0.4-0.7-0.8-1.1-1s-0.9-0.3-1.3-0.3h-1.5v10.6h1.5c0.5,0,0.9-0.1,1.3-0.3c0.4-0.2,0.8-0.5,1.1-1
		c0.3-0.4,0.5-1,0.7-1.6S38.2,42.9,38.2,42z"/>
	<path class="st0" d="M47.8,43.9c0,0.7-0.1,1.3-0.2,1.9s-0.3,1.1-0.6,1.5c-0.3,0.4-0.6,0.7-1,1c-0.4,0.2-0.8,0.3-1.3,0.3
		s-0.9-0.1-1.3-0.3c-0.4-0.2-0.7-0.6-1-1s-0.5-0.9-0.6-1.5s-0.2-1.2-0.2-1.9s0.1-1.4,0.2-1.9c0.1-0.6,0.3-1.1,0.6-1.5
		c0.3-0.4,0.6-0.7,1-1c0.4-0.2,0.8-0.3,1.3-0.3c0.5,0,0.9,0.1,1.3,0.3c0.4,0.2,0.7,0.6,1,1c0.3,0.4,0.5,0.9,0.6,1.5
		C47.7,42.5,47.8,43.2,47.8,43.9z M46.6,43.8c0-0.5,0-1-0.1-1.5s-0.2-0.8-0.4-1.2s-0.4-0.6-0.6-0.8c-0.2-0.2-0.5-0.3-0.8-0.3
		c-0.3,0-0.6,0.1-0.8,0.3c-0.2,0.2-0.4,0.5-0.6,0.8s-0.3,0.7-0.3,1.2s-0.1,0.9-0.1,1.5c0,0.5,0,1,0.1,1.5c0.1,0.4,0.2,0.8,0.3,1.2
		c0.1,0.3,0.3,0.6,0.6,0.8c0.2,0.2,0.5,0.3,0.8,0.3c0.3,0,0.6-0.1,0.8-0.3c0.2-0.2,0.4-0.4,0.6-0.8c0.1-0.3,0.3-0.7,0.3-1.2
		C46.5,44.9,46.6,44.4,46.6,43.8z"/>
	<path class="st0" d="M52.9,48.6c-0.5,0-0.9-0.1-1.3-0.4c-0.4-0.2-0.7-0.6-1-1c-0.3-0.4-0.5-0.9-0.6-1.5c-0.1-0.6-0.2-1.2-0.2-1.9
		s0.1-1.4,0.2-1.9c0.1-0.6,0.3-1.1,0.6-1.5c0.3-0.4,0.6-0.7,1-1s0.8-0.3,1.3-0.3c0.5,0,0.8,0.1,1.2,0.3c0.3,0.2,0.6,0.4,0.8,0.6
		l-0.6,0.9c-0.1-0.2-0.3-0.4-0.5-0.5c-0.2-0.1-0.5-0.2-0.8-0.2c-0.3,0-0.6,0.1-0.8,0.3s-0.4,0.4-0.6,0.8c-0.2,0.3-0.3,0.7-0.4,1.2
		c-0.1,0.5-0.1,0.9-0.1,1.5c0,0.5,0,1,0.1,1.5s0.2,0.8,0.4,1.2c0.2,0.3,0.4,0.6,0.6,0.8c0.2,0.2,0.5,0.3,0.9,0.3
		c0.3,0,0.6-0.1,0.8-0.2s0.4-0.3,0.6-0.5l0.5,0.9C54.4,48.3,53.8,48.6,52.9,48.6z"/>
	<path class="st0" d="M59.2,48.5c-0.2,0-0.4,0.1-0.6,0.1c-0.6,0-1.1-0.2-1.3-0.6s-0.4-1-0.4-1.7v-5.8h-1.2v-1h1.2v-2.5h1.2v2.5h1.6
		v1h-1.6V46c0,0.5,0.1,0.9,0.2,1.2c0.2,0.2,0.4,0.4,0.7,0.4c0.1,0,0.2,0,0.3,0c0.1,0,0.2-0.1,0.3-0.1l0.1,1
		C59.6,48.4,59.4,48.4,59.2,48.5z"/>
	<path class="st0" d="M67.4,43.9c0,0.7-0.1,1.3-0.2,1.9s-0.3,1.1-0.6,1.5c-0.3,0.4-0.6,0.7-1,1c-0.4,0.2-0.8,0.3-1.3,0.3
		s-0.9-0.1-1.3-0.3c-0.4-0.2-0.7-0.6-1-1s-0.5-0.9-0.6-1.5s-0.2-1.2-0.2-1.9s0.1-1.4,0.2-1.9c0.1-0.6,0.3-1.1,0.6-1.5
		c0.3-0.4,0.6-0.7,1-1c0.4-0.2,0.8-0.3,1.3-0.3c0.5,0,0.9,0.1,1.3,0.3c0.4,0.2,0.7,0.6,1,1c0.3,0.4,0.5,0.9,0.6,1.5
		C67.3,42.5,67.4,43.2,67.4,43.9z M66.1,43.8c0-0.5,0-1-0.1-1.5s-0.2-0.8-0.4-1.2s-0.4-0.6-0.6-0.8c-0.2-0.2-0.5-0.3-0.8-0.3
		c-0.3,0-0.6,0.1-0.8,0.3c-0.2,0.2-0.4,0.5-0.6,0.8s-0.3,0.7-0.3,1.2s-0.1,0.9-0.1,1.5c0,0.5,0,1,0.1,1.5c0.1,0.4,0.2,0.8,0.3,1.2
		c0.1,0.3,0.3,0.6,0.6,0.8c0.2,0.2,0.5,0.3,0.8,0.3c0.3,0,0.6-0.1,0.8-0.3c0.2-0.2,0.4-0.4,0.6-0.8c0.1-0.3,0.3-0.7,0.3-1.2
		C66.1,44.9,66.1,44.4,66.1,43.8z"/>
	<path class="st0" d="M72,39.6c0.3-0.3,0.7-0.5,1.2-0.5c0.1,0,0.2,0,0.2,0l0,1.2c0,0-0.1,0-0.1,0s-0.1,0-0.2,0
		c-0.3,0-0.6,0.1-0.8,0.3c-0.2,0.2-0.4,0.5-0.6,0.8c-0.2,0.3-0.3,0.7-0.4,1.1c-0.1,0.4-0.1,0.8-0.1,1.2v4.6H70v-6.7
		c0-0.2,0-0.4,0-0.6c0-0.2,0-0.4,0-0.6c0-0.2,0-0.4,0-0.6c0-0.2,0-0.3,0-0.4h1.2c0,0.2,0,0.5,0.1,0.9c0,0.3,0,0.7,0,1.1h0
		C71.4,40.6,71.6,40,72,39.6z"/>
	<path class="st0" d="M78.9,48.3c0-0.1,0-0.2,0-0.4c0-0.1,0-0.3,0-0.5c0-0.2,0-0.3,0-0.5c0-0.1,0-0.3,0-0.4h0
		c-0.3,1.3-1,1.9-2.2,1.9c-0.3,0-0.5,0-0.8-0.1c-0.3-0.1-0.5-0.3-0.7-0.5c-0.2-0.2-0.4-0.5-0.5-0.8c-0.1-0.3-0.2-0.7-0.2-1.2
		c0-0.6,0.1-1.2,0.3-1.6c0.2-0.4,0.5-0.7,0.9-0.9s0.7-0.4,1.1-0.5s0.8-0.1,1.2-0.1h0.7v-0.5c0-0.8-0.1-1.4-0.4-1.7s-0.7-0.5-1.2-0.5
		c-0.3,0-0.6,0.1-0.9,0.3c-0.3,0.2-0.5,0.4-0.7,0.7l-0.6-0.7c0.3-0.4,0.6-0.7,1.1-0.9c0.4-0.2,0.9-0.3,1.3-0.3c0.9,0,1.6,0.3,2,0.9
		c0.4,0.6,0.6,1.5,0.6,2.7v3.7c0,0.1,0,0.3,0,0.5c0,0.2,0,0.4,0,0.5c0,0.2,0,0.4,0,0.5c0,0.2,0,0.3,0,0.4H78.9z M78.7,43.8H78
		c-0.3,0-0.6,0-0.9,0.1c-0.3,0.1-0.5,0.2-0.8,0.3c-0.2,0.1-0.4,0.4-0.5,0.6s-0.2,0.6-0.2,1c0,0.6,0.1,1.1,0.4,1.4
		c0.3,0.3,0.6,0.4,0.9,0.4c0.3,0,0.6-0.1,0.9-0.3c0.2-0.2,0.4-0.5,0.6-0.8s0.2-0.7,0.3-1c0.1-0.4,0.1-0.7,0.1-1.1V43.8z"/>
	<path class="st0" d="M82.8,48.3V34.7h1.2v13.6H82.8z"/>
	<path class="st0" d="M99.7,48.3l-2.3-5.9h-1.6v5.9h-1.2V35.6h3.1c0.4,0,0.8,0.1,1.2,0.2c0.4,0.1,0.7,0.3,1,0.6
		c0.3,0.3,0.6,0.6,0.7,1c0.2,0.4,0.3,1,0.3,1.6c0,0.5-0.1,1-0.2,1.4s-0.3,0.7-0.5,1c-0.2,0.3-0.5,0.5-0.7,0.6
		c-0.3,0.1-0.5,0.2-0.8,0.3l2.5,6.1H99.7z M99.6,39c0-0.5-0.1-0.8-0.2-1.1c-0.1-0.3-0.3-0.5-0.5-0.7s-0.5-0.3-0.7-0.4
		c-0.3-0.1-0.5-0.1-0.8-0.1h-1.6v4.8h1.7c0.7,0,1.2-0.2,1.6-0.6C99.4,40.4,99.6,39.8,99.6,39z"/>
	<path class="st0" d="M103.9,44.1c0,0.5,0,0.9,0.1,1.4c0.1,0.4,0.2,0.8,0.4,1.1s0.4,0.5,0.6,0.7c0.2,0.2,0.5,0.3,0.9,0.3
		c0.4,0,0.8-0.1,1-0.4c0.3-0.3,0.5-0.6,0.6-1l0.9,0.5c-0.2,0.5-0.5,1-1,1.4c-0.4,0.4-1,0.5-1.6,0.5c-1,0-1.8-0.4-2.3-1.3
		c-0.6-0.8-0.8-2-0.8-3.5c0-0.7,0.1-1.3,0.2-1.9c0.1-0.6,0.3-1.1,0.6-1.5c0.3-0.4,0.6-0.7,1-1c0.4-0.2,0.8-0.4,1.3-0.4
		c0.5,0,1,0.1,1.3,0.3s0.7,0.5,0.9,0.9c0.2,0.4,0.4,0.9,0.5,1.4c0.1,0.5,0.2,1.1,0.2,1.7v0.6H103.9z M107.5,43.1
		c0-0.9-0.1-1.6-0.4-2.2c-0.3-0.5-0.7-0.8-1.3-0.8c-0.4,0-0.6,0.1-0.9,0.3c-0.2,0.2-0.4,0.5-0.6,0.8c-0.2,0.3-0.3,0.6-0.3,1
		c-0.1,0.3-0.1,0.7-0.1,0.9H107.5z"/>
	<path class="st0" d="M114.7,40.9c-0.2-0.3-0.4-0.5-0.6-0.6s-0.5-0.2-0.9-0.2c-0.4,0-0.7,0.1-0.9,0.4s-0.4,0.7-0.4,1.1
		c0,0.5,0.1,0.8,0.4,1s0.6,0.4,1.1,0.6c0.2,0.1,0.5,0.2,0.7,0.4c0.2,0.1,0.5,0.3,0.6,0.5c0.2,0.2,0.3,0.4,0.5,0.7
		c0.1,0.3,0.2,0.6,0.2,1c0,0.9-0.2,1.6-0.7,2c-0.5,0.5-1.1,0.7-1.8,0.7c-0.5,0-1-0.1-1.4-0.4s-0.8-0.5-1-0.9l0.7-0.8
		c0.2,0.3,0.4,0.6,0.7,0.8c0.3,0.2,0.6,0.3,1,0.3c0.4,0,0.8-0.2,1-0.5c0.3-0.3,0.4-0.7,0.4-1.2c0-0.3,0-0.5-0.1-0.7
		c-0.1-0.2-0.2-0.4-0.4-0.5c-0.2-0.1-0.3-0.2-0.5-0.3c-0.2-0.1-0.4-0.2-0.6-0.3c-0.2-0.1-0.4-0.2-0.7-0.3c-0.2-0.1-0.4-0.3-0.6-0.5
		s-0.3-0.4-0.4-0.7c-0.1-0.3-0.2-0.6-0.2-1c0-0.4,0.1-0.7,0.2-1c0.1-0.3,0.3-0.6,0.5-0.8s0.5-0.4,0.8-0.5s0.6-0.2,1-0.2
		c0.5,0,0.9,0.1,1.3,0.3c0.4,0.2,0.7,0.5,0.9,0.8L114.7,40.9z"/>
	<path class="st0" d="M118.4,44.1c0,0.5,0,0.9,0.1,1.4c0.1,0.4,0.2,0.8,0.4,1.1s0.4,0.5,0.6,0.7c0.2,0.2,0.5,0.3,0.9,0.3
		c0.4,0,0.8-0.1,1-0.4c0.3-0.3,0.5-0.6,0.6-1l0.9,0.5c-0.2,0.5-0.5,1-1,1.4c-0.4,0.4-1,0.5-1.6,0.5c-1,0-1.8-0.4-2.3-1.3
		c-0.6-0.8-0.8-2-0.8-3.5c0-0.7,0.1-1.3,0.2-1.9c0.1-0.6,0.3-1.1,0.6-1.5c0.3-0.4,0.6-0.7,1-1c0.4-0.2,0.8-0.4,1.3-0.4
		c0.5,0,1,0.1,1.3,0.3s0.7,0.5,0.9,0.9c0.2,0.4,0.4,0.9,0.5,1.4c0.1,0.5,0.2,1.1,0.2,1.7v0.6H118.4z M122,43.1
		c0-0.9-0.1-1.6-0.4-2.2c-0.3-0.5-0.7-0.8-1.3-0.8c-0.4,0-0.6,0.1-0.9,0.3c-0.2,0.2-0.4,0.5-0.6,0.8c-0.2,0.3-0.3,0.6-0.3,1
		c-0.1,0.3-0.1,0.7-0.1,0.9H122z"/>
	<path class="st0" d="M129.3,48.3c0-0.1,0-0.2,0-0.4c0-0.1,0-0.3,0-0.5c0-0.2,0-0.3,0-0.5c0-0.1,0-0.3,0-0.4h0
		c-0.3,1.3-1,1.9-2.2,1.9c-0.3,0-0.5,0-0.8-0.1c-0.3-0.1-0.5-0.3-0.7-0.5c-0.2-0.2-0.4-0.5-0.5-0.8c-0.1-0.3-0.2-0.7-0.2-1.2
		c0-0.6,0.1-1.2,0.3-1.6c0.2-0.4,0.5-0.7,0.9-0.9c0.3-0.2,0.7-0.4,1.1-0.5s0.8-0.1,1.2-0.1h0.7v-0.5c0-0.8-0.1-1.4-0.4-1.7
		s-0.7-0.5-1.2-0.5c-0.3,0-0.6,0.1-0.9,0.3c-0.3,0.2-0.5,0.4-0.7,0.7l-0.6-0.7c0.3-0.4,0.6-0.7,1.1-0.9c0.4-0.2,0.9-0.3,1.3-0.3
		c0.9,0,1.6,0.3,2,0.9c0.4,0.6,0.6,1.5,0.6,2.7v3.7c0,0.1,0,0.3,0,0.5c0,0.2,0,0.4,0,0.5c0,0.2,0,0.4,0,0.5c0,0.2,0,0.3,0,0.4H129.3
		z M129.2,43.8h-0.7c-0.3,0-0.6,0-0.9,0.1c-0.3,0.1-0.5,0.2-0.8,0.3c-0.2,0.1-0.4,0.4-0.5,0.6c-0.1,0.3-0.2,0.6-0.2,1
		c0,0.6,0.1,1.1,0.4,1.4c0.3,0.3,0.6,0.4,0.9,0.4c0.3,0,0.6-0.1,0.9-0.3s0.4-0.5,0.6-0.8s0.2-0.7,0.3-1c0.1-0.4,0.1-0.7,0.1-1.1
		V43.8z"/>
	<path class="st0" d="M135.3,39.6c0.3-0.3,0.7-0.5,1.2-0.5c0.1,0,0.2,0,0.2,0l0,1.2c0,0-0.1,0-0.1,0c0,0-0.1,0-0.2,0
		c-0.3,0-0.6,0.1-0.8,0.3c-0.2,0.2-0.4,0.5-0.6,0.8c-0.2,0.3-0.3,0.7-0.4,1.1s-0.1,0.8-0.1,1.2v4.6h-1.2v-6.7c0-0.2,0-0.4,0-0.6
		c0-0.2,0-0.4,0-0.6s0-0.4,0-0.6s0-0.3,0-0.4h1.2c0,0.2,0,0.5,0.1,0.9c0,0.3,0,0.7,0,1.1h0C134.7,40.6,134.9,40,135.3,39.6z"/>
	<path class="st0" d="M141,48.6c-0.5,0-0.9-0.1-1.3-0.4s-0.7-0.6-1-1s-0.5-0.9-0.6-1.5s-0.2-1.2-0.2-1.9s0.1-1.4,0.2-1.9
		s0.3-1.1,0.6-1.5s0.6-0.7,1-1c0.4-0.2,0.8-0.3,1.3-0.3c0.5,0,0.8,0.1,1.2,0.3c0.3,0.2,0.6,0.4,0.8,0.6l-0.6,0.9
		c-0.1-0.2-0.3-0.4-0.5-0.5c-0.2-0.1-0.5-0.2-0.8-0.2c-0.3,0-0.6,0.1-0.8,0.3s-0.4,0.4-0.6,0.8c-0.2,0.3-0.3,0.7-0.4,1.2
		c-0.1,0.5-0.1,0.9-0.1,1.5c0,0.5,0,1,0.1,1.5s0.2,0.8,0.4,1.2c0.2,0.3,0.4,0.6,0.6,0.8c0.2,0.2,0.5,0.3,0.9,0.3
		c0.3,0,0.6-0.1,0.8-0.2s0.4-0.3,0.6-0.5l0.5,0.9C142.5,48.3,141.8,48.6,141,48.6z"/>
	<path class="st0" d="M149.3,48.3v-5.8c0-0.3,0-0.6,0-0.8c0-0.3-0.1-0.5-0.2-0.8c-0.1-0.2-0.2-0.4-0.4-0.6c-0.2-0.1-0.4-0.2-0.7-0.2
		s-0.6,0.1-0.8,0.2c-0.2,0.2-0.4,0.4-0.6,0.7c-0.2,0.3-0.3,0.6-0.4,1c-0.1,0.4-0.1,0.7-0.1,1.1v5.1h-1.2V34.7h1.2v6.4h0
		c0.2-0.6,0.4-1.1,0.8-1.4c0.4-0.4,0.9-0.6,1.4-0.6c0.5,0,0.9,0.1,1.2,0.3c0.3,0.2,0.5,0.5,0.7,0.8s0.3,0.7,0.3,1.1s0.1,0.8,0.1,1.2
		v5.8H149.3z"/>
	<path class="st0" d="M154.2,44.1c0,0.5,0,0.9,0.1,1.4c0.1,0.4,0.2,0.8,0.4,1.1s0.4,0.5,0.6,0.7c0.2,0.2,0.5,0.3,0.9,0.3
		c0.4,0,0.8-0.1,1-0.4c0.3-0.3,0.5-0.6,0.6-1l0.9,0.5c-0.2,0.5-0.5,1-1,1.4c-0.4,0.4-1,0.5-1.6,0.5c-1,0-1.8-0.4-2.3-1.3
		c-0.6-0.8-0.8-2-0.8-3.5c0-0.7,0.1-1.3,0.2-1.9c0.1-0.6,0.3-1.1,0.6-1.5c0.3-0.4,0.6-0.7,1-1c0.4-0.2,0.8-0.4,1.3-0.4
		c0.5,0,1,0.1,1.3,0.3s0.7,0.5,0.9,0.9c0.2,0.4,0.4,0.9,0.5,1.4c0.1,0.5,0.2,1.1,0.2,1.7v0.6H154.2z M157.9,43.1
		c0-0.9-0.1-1.6-0.4-2.2c-0.3-0.5-0.7-0.8-1.3-0.8c-0.4,0-0.6,0.1-0.9,0.3c-0.2,0.2-0.4,0.5-0.6,0.8c-0.2,0.3-0.3,0.6-0.3,1
		c-0.1,0.3-0.1,0.7-0.1,0.9H157.9z"/>
	<path class="st0" d="M163.6,39.6c0.3-0.3,0.7-0.5,1.2-0.5c0.1,0,0.2,0,0.2,0l0,1.2c0,0-0.1,0-0.1,0c0,0-0.1,0-0.2,0
		c-0.3,0-0.6,0.1-0.8,0.3c-0.2,0.2-0.4,0.5-0.6,0.8c-0.2,0.3-0.3,0.7-0.4,1.1s-0.1,0.8-0.1,1.2v4.6h-1.2v-6.7c0-0.2,0-0.4,0-0.6
		c0-0.2,0-0.4,0-0.6s0-0.4,0-0.6s0-0.3,0-0.4h1.2c0,0.2,0,0.5,0.1,0.9c0,0.3,0,0.7,0,1.1h0C163,40.6,163.2,40,163.6,39.6z"/>
	<path class="st0" d="M178,48.3c0-0.1,0-0.2,0-0.4c0-0.1,0-0.3,0-0.5c0-0.2,0-0.3,0-0.5c0-0.1,0-0.3,0-0.4h0c-0.3,1.3-1,1.9-2.2,1.9
		c-0.3,0-0.5,0-0.8-0.1c-0.3-0.1-0.5-0.3-0.7-0.5c-0.2-0.2-0.4-0.5-0.5-0.8c-0.1-0.3-0.2-0.7-0.2-1.2c0-0.6,0.1-1.2,0.3-1.6
		c0.2-0.4,0.5-0.7,0.9-0.9c0.3-0.2,0.7-0.4,1.1-0.5s0.8-0.1,1.2-0.1h0.7v-0.5c0-0.8-0.1-1.4-0.4-1.7s-0.7-0.5-1.2-0.5
		c-0.3,0-0.6,0.1-0.9,0.3c-0.3,0.2-0.5,0.4-0.7,0.7l-0.6-0.7c0.3-0.4,0.6-0.7,1.1-0.9c0.4-0.2,0.9-0.3,1.3-0.3c0.9,0,1.6,0.3,2,0.9
		c0.4,0.6,0.6,1.5,0.6,2.7v3.7c0,0.1,0,0.3,0,0.5c0,0.2,0,0.4,0,0.5c0,0.2,0,0.4,0,0.5c0,0.2,0,0.3,0,0.4H178z M177.8,43.8h-0.7
		c-0.3,0-0.6,0-0.9,0.1c-0.3,0.1-0.5,0.2-0.8,0.3c-0.2,0.1-0.4,0.4-0.5,0.6c-0.1,0.3-0.2,0.6-0.2,1c0,0.6,0.1,1.1,0.4,1.4
		c0.3,0.3,0.6,0.4,0.9,0.4c0.3,0,0.6-0.1,0.9-0.3s0.4-0.5,0.6-0.8s0.2-0.7,0.3-1c0.1-0.4,0.1-0.7,0.1-1.1V43.8z"/>
	<path class="st0" d="M184.3,48.5c-0.2,0-0.4,0.1-0.6,0.1c-0.6,0-1.1-0.2-1.3-0.6s-0.4-1-0.4-1.7v-5.8h-1.2v-1h1.2v-2.5h1.2v2.5h1.6
		v1h-1.6V46c0,0.5,0.1,0.9,0.2,1.2c0.2,0.2,0.4,0.4,0.7,0.4c0.1,0,0.2,0,0.3,0c0.1,0,0.2-0.1,0.3-0.1l0.1,1
		C184.6,48.4,184.5,48.4,184.3,48.5z"/>
	<path class="st0" d="M199.9,48.3l-4.4-10.6h-0.1v10.6h-1.2V35.6h1.6l4.4,10.6h0.1V35.6h1.2v12.7H199.9z"/>
	<path class="st0" d="M210.8,48.3v-6h-4.9v6h-1.3V35.6h1.3v5.6h4.9v-5.6h1.3v12.7H210.8z"/>
	<path class="st0" d="M221.4,48.3v-6h-4.9v6h-1.3V35.6h1.3v5.6h4.9v-5.6h1.3v12.7H221.4z"/>
</g>
</svg>
